<?xml version="1.0" standalone="no"?>
<!DOCTYPE svg PUBLIC "-//W3C//DTD SVG 20010904//EN"
 "http://www.w3.org/TR/2001/REC-SVG-20010904/DTD/svg10.dtd">
<svg version="1.0" xmlns="http://www.w3.org/2000/svg"
 width="700.000000pt" height="700.000000pt" viewBox="0 0 700.000000 700.000000"
 preserveAspectRatio="xMidYMid meet">
<metadata>
Created by potrace 1.14, written by Peter Selinger 2001-2017
</metadata>
<g transform="translate(0.000000,700.000000) scale(0.100000,-0.100000)"
fill="#000000" stroke="none">
<path d="M0 3500 l0 -3500 3500 0 3500 0 0 3500 0 3500 -3500 0 -3500 0 0
-3500z m5160 2630 c267 -5 539 -14 605 -20 172 -15 378 -39 383 -45 6 -6 -58
-479 -66 -486 -4 -3 -77 2 -162 12 -281 32 -535 39 -1405 42 -831 2 -944 -1
-1142 -29 -39 -6 -41 -8 -47 -47 -12 -83 -36 -430 -56 -787 -19 -355 -46 -713
-55 -756 -5 -21 0 -21 138 -28 78 -4 246 -14 372 -21 159 -10 424 -15 858 -15
l627 0 0 -250 0 -250 -657 0 c-431 0 -760 5 -953 15 -162 8 -334 15 -381 15
l-85 0 -37 -149 c-133 -535 -353 -973 -718 -1426 -289 -359 -607 -644 -970
-868 -153 -94 -339 -191 -348 -181 -8 9 -211 432 -211 439 0 2 51 30 114 63
387 203 728 489 1023 857 280 348 464 694 578 1085 24 82 30 116 21 118 -33 8
-277 -95 -368 -156 -33 -22 -41 -23 -53 -11 -16 17 -275 387 -275 393 0 19
266 160 400 211 78 30 283 85 373 100 20 3 37 12 37 18 0 7 9 110 20 228 10
117 29 367 40 554 11 187 28 425 36 528 9 104 14 190 11 193 -7 8 -154 -53
-254 -106 -107 -56 -216 -127 -279 -183 -33 -29 -50 -38 -60 -31 -33 23 -324
355 -319 364 4 6 43 40 87 75 395 319 891 491 1573 545 120 9 843 5 1605 -10z"/>
</g>
</svg>
