<svg version="1.0" viewBox="0 0 4096 2160" xmlns="http://www.w3.org/2000/svg" xmlns:xlink="http://www.w3.org/1999/xlink"><defs><linearGradient id="b"><stop stop-color="#9bffff" offset="0"/><stop stop-color="#98aae6" offset="1"/></linearGradient><radialGradient id="a" cx="2070" cy="1058" r="1215" gradientTransform="matrix(1 0 0 1.051 0 -54.43)" gradientUnits="userSpaceOnUse" xlink:href="#b"/></defs><g id="c" transform="matrix(1.934 0 0 1.934 -1956 -965.3)" fill="url(#a)" stroke-width=".3675"><path d="m2154 1316-187.7 60.99 103.8-319.3 271.6 197.4z"/><path d="m2943 1484 138.5-106.9-86.47 352.2-190.5-138.4z"/><path d="m1851 1217-116-159.7h335.8l-103.8 319.3z"/><path d="m1851 898 116-159.7 103.8 319.3h-335.8z"/><path d="m2154 799.3 187.7 60.99-271.6 197.4-103.8-319.3z"/><path d="m3111 1484 29.39 106.9-145.3 138.4 86.47-352.2z"/><path d="m1978 2179-83.94 60.99-176.5-95.38 344.4-26.59z"/><path d="m978.5 1324-86.61-69.2 36.17-197.4 137.1 335.8z"/><path d="m1487 96.36 32.06-98.68 198.9-26.59-263 223.9z"/><path d="m2804 205.2 103.8-2e-3 86.74 180.9-294.3-180.9z"/><path d="m3024 1750-116 159.7 86.74-180.9 145.3-138.4z"/><path d="m1706 2179-187.7-60.99 198.9 26.59 176.5 95.38z"/><path d="m891.9 1058v-197.4l36.17 197.4-36.17 197.4z"/><path d="m1706-63.31 187.7-60.99-176.5 95.38-198.9 26.59z"/><path d="m3024 364.9 116 159.7-145.3-138.4-86.74-180.9z"/><path d="m2519 1920-167.9-5e-4 72.76 223.9 263-223.9z"/><path d="m1396 1755-58.87-164.7-190.5 138.4 308.2 191.1z"/><path d="m1201 623.2 135.8-98.68-190.5-138.4-81.13 335.8z"/><path d="m2206 96.36 144.5 98.68 72.76-223.9-361.7 26.59z"/><path d="m3029 898-51.88 159.7h235.5l-131.7-319.3z"/><path d="m2458 898-51.88 159.7h335.8l-232-319.3z"/><path d="m2678 738.3-167.9 4.9e-4 232 319.3 103.8-319.3z"/><path d="m2657 312.1-43.37 106.9 335.8-9.8e-4 -249-213.8z"/><path d="m2038 639.6 135.8 98.68 103.8-319.3-375.4 122z"/><path d="m1954 381.3-51.88 159.7 375.4-122-271.6-197.4z"/><path d="m1543 269.3 88.26 74.28 103.8-319.3-280.3 170.8z"/><path d="m1663 959 135.8-98.68-271.6-197.4v394.7z"/><path d="m1391 959 135.8 98.68v-394.7l-271.6 197.4z"/><path d="m1160 1324 95.25-69.2-271.6-197.4 81.13 335.8z"/><path d="m1851 1415-51.88-159.7-271.6 197.4 375.4 122z"/><path d="m1767 1673 135.8-98.68-375.4-122 103.8 319.3z"/><path d="m2034 2006-27.75-112-271.6 197.4 327.1 26.59z"/><path d="m2342 1377h-167.9l103.8 319.3 232-319.3z"/><path d="m2562 1537-51.88-159.7-232 319.3 335.8 0.0011z"/><path d="m2963 1377h-117.7l103.8 319.3 131.7-319.3z"/><path d="m3183 700.6 65.86 159.7 18.08-98.68 18.08-98.68-167.9-122z"/><path d="m3085 442.3 32.06 98.68 167.9 122-232-319.3z"/><path d="m2754 109.7 131.5 112-64.12-197.4-198.9-26.59z"/><path d="m2075-111 172.2-13.3-176.5-95.38-167.9 122z"/><path d="m1799-97.7 103.8 0.0017 167.9-122-375.4 122z"/><path d="m1380 114.7 147.1-90.46-207.5-0.0035-86.74 180.9z"/><path d="m960.4 692.4 40.57-167.9-145.3 138.4 64.13 197.4z"/><path d="m887.8 958.9 32.06-98.68-64.13-197.4v394.7z"/><path d="m960.4 1423-40.57-167.9-64.13 197.4 145.3 138.4z"/><path d="m1380 2001-147.1-90.46 86.74 180.9h207.5z"/><path d="m1611 2152-83.94-60.99h-207.5l375.4 122z"/><path d="m2075 2226-172.2-13.3 167.9 122 176.5-95.38z"/><path d="m2754 2006-131.5 112 198.9-26.59 64.12-197.4z"/><path d="m2969 1833-83.94 60.99-64.12 197.4 232-319.3z"/><path d="m3183 1415-65.86 159.7 167.9-122-18.08-98.68-18.08-98.68z"/><path d="m2534-50.01 88.26 47.69 198.9 26.59-375.4-122z"/><path d="m2530-36.72-83.94-60.99 375.4 122-207.5 0.0035z"/><path d="m2150-50.01 88.26-47.69 167.9 122-344.4-26.59z"/><path d="m1160 274.4 72.63-69.2 86.74-180.9-232 319.3z"/><path d="m1172 282.6-83.94 60.99 232-319.3-64.12 197.4z"/><path d="m1044 631.4-20.75-90.46 167.9-122-126.4 302.9z"/><path d="m1044 1681-43.37-90.46-145.3-138.4 232 319.3z"/><path d="m1056 1673 32.06 98.68-232-319.3 167.9 122z"/><path d="m1355 1907-99.44-13.29-64.12-197.4 263 223.9z"/><path d="m2346 2226-99.44 13.29-176.5 95.38 375.4-122z"/><path d="m2342 2213h103.8l-375.4 122 167.9-122z"/><path d="m2650 2006-36.38 85.38h-207.5l280.3-170.8z"/><path d="m3267 1156-18.08 98.68 36.17 197.4v-394.7z"/><path d="m3253 1156 32.06-98.68v394.7l-64.13-197.4z"/><path d="m3151 799.3 69.96 60.99-64.13 197.4-75.8-319.3z"/><path d="m2657 434.1 147.1 90.46-190.5 138.4-103.8-319.3z"/><path d="m2374 442.3 135.8-98.68 103.8 319.3-375.4-122z"/><path d="m1962 208.3 172.2 13.3-271.6 197.4-72.76-223.9z"/><path d="m1659 307 131.5-112 72.76 223.9-335.8-0.0011z"/><path d="m1579 578.6-51.88-159.7 335.8 0.0011-232 319.3z"/><path d="m1229 898 65.86-159.7 103.8 319.3h-235.5z"/><path d="m1229 1217-65.86-159.7h235.5l-103.8 319.3z"/><path d="m1463 1377-167.9 5e-4 103.8-319.3 232 319.3z"/><path d="m1659 1808-131.5-112 335.8-0.0011-72.76 223.9z"/><path d="m2983 799.3 97.92-60.99 75.8 319.3-271.6-197.4z"/><path d="m2885 1058v-197.4l271.6 197.4-271.6 197.4z"/><path d="m2478 1156 135.8-98.68v394.7l-271.6-197.4z"/><path d="m1962 1907-172.2 13.3 72.76-223.9 271.6 197.4z"/><path d="m2186 1734-51.88 159.7-271.6-197.4 375.4-122z"/><path d="m2657 1681-147.1 90.46 103.8-319.3 190.5 138.4z"/><path d="m2546 2006-140.1 85.38 103.8-319.3 176.5 148.6z"/><path d="m2745 1755-58.87 164.7-176.5-148.6 294.3-180.9z"/><path d="m2841 1825-154.1 95.54 117.7-329.5 190.5 138.4z"/><path d="m2458 1931-51.88 159.7-271.6-197.4 375.4-122z"/><path d="m2374 1673 135.8 98.68-375.4 122 103.8-319.3z"/><path d="m2562 1612-51.88 159.7-271.6-197.4 375.4-122z"/><path d="m1890 2131-172.2 13.3 72.76-223.9 271.6 197.4z"/><path d="m2098 2006-36.38 112-271.6-197.4 344.4-26.59z"/><path d="m2234 2104-172.2 13.3 72.76-223.9 271.6 197.4z"/><path d="m2478 761.6 135.8-98.68v394.7l-271.6-197.4z"/><path d="m2342 1058v-197.4l271.6 197.4-271.6 197.4z"/><path d="m2206 959 135.8-98.68v394.7l-271.6-197.4z"/><path d="m2614 860.3v-197.4l271.6 197.4-271.6 197.4z"/><path d="m2750 1156-135.8-98.68 271.6-197.4v394.7z"/><path d="m2614 1255v-197.4l271.6 197.4-271.6 197.4z"/><path d="m2899 455.3 95.25-69.2 86.47 352.2-277-213.8z"/><path d="m2845 692.4-40.57-167.9 277 213.8-195.8 122z"/><path d="m2709 593.7 95.25-69.2 81.13 335.8-271.6-197.4z"/><path d="m1323 1808-131.5-112 335.8-1e-3 -72.76 223.9z"/><path d="m1622 1920-167.9 6e-4 72.76-223.9 263 223.9z"/><path d="m1586 2032-131.5-112 335.8-0.0011-72.76 223.9z"/><path d="m1359 1696-167.9 5e-4 103.8-319.3 232 319.3z"/><path d="m1579 1537-51.88 159.7-232-319.3 335.8-0.0011z"/><path d="m1695 1696-167.9 4e-4 103.8-319.3 232 319.3z"/><path d="m996.6 1226-68.53-167.9h235.5l-98.42 335.8z"/><path d="m1180 1385-115.1 8.216 98.42-335.8 131.7 319.3z"/><path d="m1128 1545-63.19-151.4 230.1-16.43-103.8 319.3z"/><path d="m1128 570.4 63.19-151.4 103.8 319.3-230.1-16.43z"/><path d="m1114 889.7-49.21-167.9 230.1 16.43-131.7 319.3z"/><path d="m996.6 889.7 68.53-167.9 98.42 335.8h-235.5z"/><path d="m1243 578.6-51.88-159.7 335.8 9.8e-4 -232 319.3z"/><path d="m1463 738.3-167.9-4.9e-4 232-319.3 103.8 319.3z"/><path d="m1347 898-51.88-159.7 335.8 9.8e-4 -232 319.3z"/><path d="m1586 83.06 131.5-112 72.76 223.9-335.8-9.8e-4z"/><path d="m1491 307-36.38-112 335.8 9.8e-4 -263 223.9z"/><path d="m1323 307 131.5-112 72.76 223.9-335.8-9.8e-4z"/><path d="m2234 10.98 172.2 13.3-271.6 197.4-72.76-223.9z"/><path d="m1926 96.36 135.8-98.68 72.76 223.9-344.4-26.59z"/><path d="m1890-15.61 172.2 13.3-271.6 197.4-72.76-223.9z"/><path d="m2270 123 135.8-98.68 103.8 319.3-375.4-122z"/><path d="m2186 381.3-51.88-159.7 375.4 122-271.6 197.4z"/><path d="m1999 320.3 135.8-98.68 103.8 319.3-375.4-122z"/><path d="m2848 295.7 147.1 90.46-190.5 138.4-103.8-319.3z"/><path d="m2605 274.4 95.25-69.2 103.8 319.3-294.3-180.9z"/><path d="m2553 114.7 147.1 90.46-190.5 138.4-103.8-319.3z"/><path d="m3213 593.7 72.63 69.2-64.13 197.4-81.13-335.8z"/><path d="m3111 631.4 29.39-106.9 81.13 335.8-139.9-122z"/><path d="m3067 455.3 72.63 69.2-58.79 213.8-86.47-352.2z"/><path d="m3253 761.6 32.06-98.68v394.7l-64.13-197.4z"/><path d="m3221 1058v-197.4l64.13 197.4-64.13 197.4z"/><path d="m3189 958.9 32.06-98.68v394.7l-64.13-197.4z"/><path d="m3231 958.9-18.08 98.68 36.17 197.4v-394.7z"/><path d="m3267 958.9-18.08-98.68v394.7l18.08-98.68 18.08-98.68z"/><path d="m3267 761.6-18.08 98.68 36.17 197.4v-394.7z"/><path d="m2865 2001-43.37 90.46h-207.5l294.3-180.9z"/><path d="m2797 1915 110.7-5.079-294.3 180.9 72.76-170.8z"/><path d="m2951 1820-43.37 90.46-221.5 10.16 308.2-191.1z"/><path d="m2718 2091h103.8l-375.4 122 167.9-122z"/><path d="m2426 2152 187.7-60.99-167.9 122h-207.5z"/><path d="m2510 2091h103.8l-375.4 122 167.9-122z"/><path d="m2523 2131-99.44 13.29-176.5 95.38 375.4-122z"/><path d="m2534 2165 88.26-47.69-375.4 122 198.9-26.59z"/><path d="m2722 2104-99.44 13.29-176.5 95.38 375.4-122z"/><path d="m1419 2104-99.44-13.29-64.12-197.4 263 223.9z"/><path d="m1487 2019 32.06 98.68-263-223.9 198.9 26.59z"/><path d="m1618 2131-99.44-13.29-64.12-197.4 263 223.9z"/><path d="m1288 1992 32.06 98.68-232-319.3 167.9 122z"/><path d="m1140 1734 116 159.7-167.9-122-64.12-197.4z"/><path d="m1224 1795 32.06 98.68-232-319.3 167.9 122z"/><path d="m1190 1820-43.37-90.46-145.3-138.4 232 319.3z"/><path d="m1160 1841 72.63 69.2-232-319.3 86.74 180.9z"/><path d="m1276 2001-43.37-90.46-145.3-138.4 232 319.3z"/><path d="m873.8 761.6-18.08-98.68 167.9-122-131.7 319.3z"/><path d="m978.5 791.1-86.61 69.2 131.7-319.3 41.51 180.9z"/><path d="m909.9 958.9-18.08-98.68 173.2-138.4-137.1 335.8z"/><path d="m939.6 601.9-83.94 60.99 232-319.3-64.12 197.4z"/><path d="m1140 381.3-116 159.7 64.12-197.4 167.9-122z"/><path d="m1108 480-83.94 60.99 232-319.3-64.12 197.4z"/><path d="m1074 455.3 72.63-69.2 86.74-180.9-232 319.3z"/><path d="m1044 434.1-43.37 90.46 232-319.3-145.3 138.4z"/><path d="m928.3 593.7 72.63-69.2 86.74-180.9-232 319.3z"/><path d="m1982-172 88.26-47.69 167.9 122-344.4-26.59z"/><path d="m1978-63.31-83.94-60.99 344.4 26.59-176.5 95.38z"/><path d="m1806-76.6 88.26-47.69 167.9 122-344.4-26.59z"/><path d="m2154-158.7-83.94-60.99 375.4 122-207.5 0.0034z"/><path d="m2426-36.72-187.7-60.99 207.5-0.0034 167.9 122z"/><path d="m2322-36.71-83.94-60.99 375.4 122-207.5 3e-3z"/><path d="m2335-76.6 88.26 47.69 198.9 26.59-375.4-122z"/><path d="m2346-111-99.44-13.29 375.4 122-176.5-95.38z"/><path d="m2159-172 88.26 47.69 198.9 26.59-375.4-122z"/><path d="m3015 1537-65.86 159.7 167.9-122-18.08-98.68-18.08-98.68z"/><path d="m3165 1316-83.94 60.99 36.17 197.4 131.7-319.3z"/><path d="m3147 1217-65.86 159.7 167.9-122-36.17-197.4z"/><path d="m3033 1635-83.94 60.99-64.12 197.4 232-319.3z"/><path d="m3085 1673 32.06-98.68-232 319.3 167.9-122z"/><path d="m3201 1513-83.94 60.99-64.12 197.4 232-319.3z"/><path d="m2555 2032-131.5 112 198.9-26.59 64.12-197.4z"/><path d="m2786 1907-99.44 13.29-64.12 197.4 263-223.9z"/><path d="m2818 1808-131.5 112 198.9-26.59 64.12-197.4z"/><path d="m1898 2104-163.6-13.3 167.9 122 159.2-95.38z"/><path d="m2154 2179-92.57-60.99-159.2 95.38 344.4 26.59z"/><path d="m2243 2131-180.8-13.3 185.1 122 176.5-95.38z"/><path d="m1819 2152-83.94-60.99h-207.5l375.4 122z"/><path d="m1799 2213h103.8l-375.4-122 167.9 122z"/><path d="m1987 2274-83.94-60.99h-207.5l375.4 122z"/><path d="m1300 1825-154.1-95.54 86.74 180.9 221.5 10.16z"/><path d="m1491 2006-36.38-85.38-221.5-10.16 294.3 180.9z"/><path d="m1595 2006-140.1-85.38 72.76 170.8h207.5z"/><path d="m1025 1226-40.57-167.9-64.13 197.4 145.3 138.4z"/><path d="m1033 1492 32.06-98.68-145.3-138.4 81.13 335.8z"/><path d="m1106 1561-40.57-167.9-64.13 197.4 145.3 138.4z"/><path d="m951.9 1156 32.06-98.68-64.13-197.4v394.7z"/><path d="m887.8 1156 32.06 98.68v-394.7l-64.13 197.4z"/><path d="m887.8 1354 32.06-98.68-64.13-197.4v394.7z"/><path d="m1106 554 40.57-167.9-145.3 138.4 64.13 197.4z"/><path d="m992.4 791.1 72.63-69.2-64.13-197.4-81.13 335.8z"/><path d="m1025 889.7 40.57-167.9-145.3 138.4 64.13 197.4z"/><path d="m1595 109.7 140.1-85.38-207.5-3e-3 -72.76 170.8z"/><path d="m1344 200.1 110.7-5.078 72.76-170.8-294.3 180.9z"/><path d="m1300 290.6 154.1-95.54-221.5 10.16-86.74 180.9z"/><path d="m1631 24.27 103.8 0.0015 167.9-122-375.4 122z"/><path d="m1611-36.72-83.94 60.99 375.4-122-207.5-0.0034z"/><path d="m1423 24.27 103.8 2e-3 167.9-122-375.4 122z"/><path d="m2243-15.61 180.8-13.3-176.5-95.38-185.1 122z"/><path d="m1982-50.01 79.62 47.69 185.1-122-344.4 26.59z"/><path d="m1898 10.98 163.6-13.3-159.2-95.38-167.9 122z"/><path d="m2825 312.1 124.5 106.9-64.12-197.4-184.9-16.43z"/><path d="m2661 101.4 39.05 103.8 184.9 16.43-263-223.9z"/><path d="m2562 88.14 138.5 117.1-78.11-207.5-198.9-26.59z"/><path d="m2917 320.3 32.06 98.68 167.9 122-232-319.3z"/><path d="m2969 282.6-83.94-60.99 232 319.3-64.12-197.4z"/><path d="m2853 122.9 32.06 98.68 167.9 122-232-319.3z"/><path d="m3147 898 65.86 159.7 36.17-197.4-167.9-122z"/><path d="m3099 639.6-18.08 98.68 167.9 122-131.7-319.3z"/><path d="m3015 578.6 65.86 159.7 18.08-98.68 18.08-98.68-167.9-122z"/><path d="m2860 1058h-117.7l103.8 319.3 131.7-319.3z"/><path d="m3029 1217-51.88-159.7-131.7 319.3h235.5z"/><path d="m3095 1058h-117.7l103.8 319.3 131.7-319.3z"/><path d="m2794 1217-51.88-159.7-232 319.3 335.8 0.0011z"/><path d="m2730 1537 116-159.7-335.8-0.0011 103.8 319.3z"/><path d="m2898 1537-51.88-159.7-232 319.3 335.8 1e-3z"/><path d="m2238 1058h-167.9l103.8 319.3 232-319.3z"/><path d="m2458 1217-51.88-159.7-232 319.3h335.8z"/><path d="m2574 1058h-167.9l103.8 319.3 232-319.3z"/><path d="m2314 1808-36.38-112-271.6 197.4 344.4 26.59z"/><path d="m2206 2019 144.5-98.68-344.4-26.59 55.5 223.9z"/><path d="m2387 2032-36.38-112-288.9 197.4 361.7 26.59z"/><path d="m2142 1795 135.8-98.68-375.4-122 103.8 319.3z"/><path d="m1819 1833 187.7 60.99-103.8-319.3-271.6 197.4z"/><path d="m1871 1992 135.8-98.68-375.4-122 103.8 319.3z"/><path d="m2122 1217-51.88-159.7-271.6 197.4 375.4 122z"/><path d="m2038 1476 135.8-98.68-375.4-122 103.8 319.3z"/><path d="m2226 1537-51.88-159.7-271.6 197.4 375.4 122z"/><path d="m1432 1522 95.25-69.2-271.6-197.4 81.13 335.8z"/><path d="m1201 1492 135.8 98.68-81.13-335.8-190.5 138.4z"/><path d="m1241 1660 95.25-69.2-271.6-197.4 81.13 335.8z"/><path d="m1391 1354 135.8 98.68v-394.7l-271.6 197.4z"/><path d="m1256 1058v197.4l271.6-197.4-271.6-197.4z"/><path d="m1120 1156 135.8 98.68v-394.7l-271.6 197.4z"/><path d="m1935 1156 135.8-98.68-271.6-197.4v394.7z"/><path d="m1663 1156 135.8 98.68v-394.7l-271.6 197.4z"/><path d="m1663 1354 135.8-98.68-271.6-197.4v394.7z"/><path d="m1432 593.7 95.25 69.2 103.8-319.3-294.3 180.9z"/><path d="m1396 359.8-58.87 164.7 294.3-180.9-176.5-148.6z"/><path d="m1241 455.3 95.25 69.2 117.7-329.5-308.2 191.1z"/><path d="m1579 503.3-51.88 159.7 375.4-122-271.6-197.4z"/><path d="m1819 282.6-187.7 60.99 271.6 197.4 103.8-319.3z"/><path d="m1683 183.9-51.88 159.7 375.4-122-271.6-197.4z"/><path d="m1935 959 135.8 98.68 103.8-319.3-375.4 122z"/><path d="m1851 700.6-51.88 159.7 375.4-122-271.6-197.4z"/><path d="m1663 761.6 135.8 98.68 103.8-319.3-375.4 122z"/><path d="m2314 307-36.38 112 335.8-0.0011-263-223.9z"/><path d="m2526 200.1-174.9-5.08 263 223.9 86.75-213.8z"/><path d="m2387 83.06-36.38 112 349.7 10.16-277-234.1z"/><path d="m2446 419-167.9 6.1e-4 232 319.3 103.8-319.3z"/><path d="m2730 578.6-116-159.7-103.8 319.3 335.8-9.8e-4z"/><path d="m2782 419-167.9 4.9e-4 232 319.3 103.8-319.3z"/><path d="m2122 898-51.88 159.7h335.8l-232-319.3z"/><path d="m2342 738.3h-167.9l232 319.3 103.8-319.3z"/><path d="m2226 578.6-51.88 159.7h335.8l-232-319.3z"/><path d="m2794 898-51.88 159.7h235.5l-131.7-319.3z"/><path d="m2963 738.3h-117.7l131.7 319.3 103.8-319.3z"/><path d="m2898 578.6-51.88 159.7h235.5l-131.7-319.3z"/><path d="m2142 320.3 135.8 98.68 72.76-223.9-344.4 26.59z"/><path d="m2034 109.7-27.75 112 344.4-26.59-288.9-197.4z"/><path d="m1871 123 135.8 98.68 55.5-223.9-327.1 26.59z"/><path d="m1391 761.6 135.8-98.68-190.5-138.4-81.13 335.8z"/><path d="m1160 791.1 95.25 69.2 81.13-335.8-271.6 197.4z"/><path d="m1120 959 135.8-98.68-190.5-138.4-81.13 335.8z"/><path d="m1579 1612-51.88-159.7-190.5 138.4 294.3 180.9z"/><path d="m1543 1846 88.26-74.28-294.3-180.9 117.7 329.5z"/><path d="m1683 1931-51.88-159.7-176.5 148.6 280.3 170.8z"/><path d="m2446 1696-167.9-7e-4 72.76 223.9 263-223.9z"/><path d="m2650 1808-36.38-112-263 223.9 335.8 0.0011z"/><path d="m2782 1696-167.9-5e-4 36.38 112 36.38 112 263-223.9z"/><path d="m3169 503.3 116 159.7-145.3-138.4-86.74-180.9z"/><path d="m2981 274.4 72.63 69.2 86.74 180.9-232-319.3z"/><path d="m2937 183.9 116 159.7-145.3-138.4-86.74-180.9z"/><path d="m1883-158.7 187.7-60.99-176.5 95.38-198.9 26.59z"/><path d="m1607-50.01 88.26-47.69 198.9-26.59-375.4 122z"/><path d="m1507-36.72 187.7-60.99-176.5 95.38-198.9 26.59z"/><path d="m855.7 860.3v-197.4l18.08 98.68 18.08 98.68-18.08 98.68-18.08 98.68z"/><path d="m873.8 1156-18.08-98.68 36.17-197.4v394.7z"/><path d="m855.7 1255v-197.4l18.08 98.68 18.08 98.68-18.08 98.68-18.08 98.68z"/><path d="m1507 2152-187.7-60.99 198.9 26.59 176.5 95.38z"/><path d="m1795 2226-99.44-13.29-176.5-95.38 375.4 122z"/><path d="m1883 2274-187.7-60.99 198.9 26.59 176.5 95.38z"/><path d="m2937 1931-116 159.7 86.74-180.9 145.3-138.4z"/><path d="m3097 1681-43.37 90.46-145.3 138.4 232-319.3z"/><path d="m3169 1612-116 159.7 86.74-180.9 145.3-138.4z"/><path d="m2718 24.27 103.8-0.0015 86.74 180.9-294.3-180.9z"/><path d="m2657 114.7-43.37-90.46 294.3 180.9-207.5 4e-3z"/><path d="m2510 24.27 103.8-0.0015 86.74 180.9-294.3-180.9z"/><path d="m1288 122.9 32.06-98.68 198.9-26.59-263 223.9z"/><path d="m1355 208.3-99.44 13.29 263-223.9-64.12 197.4z"/><path d="m1224 320.3 32.06-98.68 198.9-26.59-263 223.9z"/><path d="m939.6 1513-83.94-60.99 36.17-197.4 131.7 319.3z"/><path d="m1044 1484-20.75 90.46-131.7-319.3 173.2 138.4z"/><path d="m1108 1635-83.94-60.99 41.51-180.9 126.4 302.9z"/><path d="m2154 2274-83.94 60.99-176.5-95.38 344.4-26.59z"/><path d="m2150 2165 88.26 47.69-344.4 26.59 167.9-122z"/><path d="m2322 2152-83.94 60.99-176.5-95.38 344.4-26.59z"/><path d="m3253 1354 32.06 98.68-145.3 138.4 81.13-335.8z"/><path d="m3151 1316 69.96-60.99-81.13 335.8-58.79-213.8z"/><path d="m3189 1156 32.06 98.68-139.9 122 75.8-319.3z"/><path d="m2426 601.9 187.7 60.99-271.6 197.4-103.8-319.3z"/><path d="m2103 639.6 135.8-98.68 103.8 319.3-375.4-122z"/><path d="m2051 480 187.7 60.99-271.6 197.4-103.8-319.3z"/><path d="m1747 578.6 116-159.7 103.8 319.3h-335.8z"/><path d="m1683 898-51.88-159.7h335.8l-232 319.3z"/><path d="m1515 898 116-159.7 103.8 319.3h-335.8z"/><path d="m1515 1217-116-159.7h335.8l-103.8 319.3z"/><path d="m1799 1377h-167.9l103.8-319.3 232 319.3z"/><path d="m1747 1537-116-159.7h335.8l-103.8 319.3z"/><path d="m3021 1156 135.8-98.68-75.8 319.3-195.8-122z"/><path d="m2845 1423 40.57-167.9 195.8 122-277 213.8z"/><path d="m2750 1354 135.8-98.68-81.13 335.8-190.5-138.4z"/><path d="m2051 1635-187.7 60.99 103.8-319.3 271.6 197.4z"/><path d="m2290 1415-51.88 159.7-271.6-197.4 375.4-122z"/><path d="m2426 1513-187.7 60.99 103.8-319.3 271.6 197.4z"/></g><g id="d" transform="matrix(1.934 0 0 1.934 -1948 -973.2)" fill="none" stroke="#fff" stroke-linecap="round" stroke-width="1.919"><path d="m1719 2140 351.8-1083 104.3-320.6 250.2-769.9"/><path d="m931.9 1058h1138l921 669.2"/><path d="m3085 1378-93.42 348.9-86.44 180.3-81.01 187.4-212.2-7.097h-206.8l-686.4 53-396.4-52.99-92.16-174.5-87.05-181.6-74.52-339.1-88.32-334.7 162.8-673.9 87.05-181.6 92.16-174.2 396.4-52.99 686.4 53 297.8 174.2 288.6 186.4 289.5 275.8-27.61 195.1-36.29 198-264.4 640.9-268.4 218.8-259.4 230.6-177.1 95.72-177.2 104.1-176-112.2-175.9-95.05-524.2-446.3-125.9-301.8"/><path d="m2070 1058 921-669.2"/><path d="m1719-25.03 351.8 1083 104.3 320.3 250.2 769.9"/><path d="m1334 1593-265.7-200.2-136.6-334.6-36.04-196.7-44.41-199.6 175.7-118.6 167.3-121.5 252.6-236.6 271.6-209.7 175.9-95.05 176.1-104.2 354.3 191.4 278 234.9 249.9 214.5 264.4 640.9 36.29 198 27.61 195.4-289.5 275.8-307.2 190.4-279.3 170.2"/><path d="m2824 2095-399.1 53.36-363-33.97-328.2-19.41-277.1-177.3-313.5-185.9-291.5-277.8 44.41-199.3 36.04-196.7 129.7-337.1 132.8-299.3"/><path d="m851.5 661.5 291.5-277.8 304-199 286.6-164.1 328.2-19.09 363-34.28 399.1 53.36 81.01 187.7 86.44 180.3 93.42 348.6 68.28 320.6-68.28 320.3-283.3 211"/><path d="m3217 1058h-809.5l-337.1 0.157-927.4 673.7"/><path d="m2070 1058-272.4-198.2-654.9-475.8"/><path d="m2744 1058-465.6-640.9-545.2-396.1-208.2-0.003418-203.1 7.405-231.2 318.2-239.6 315.3v792.2l239.6 315.6 231.2 318.2 371.6 129.5 376.6 130.8 374-138.7 379.5-114.5 232.8-320.5 224.1-323.1v-786.6l-224.1-323.4-232.8-320.5-379.5-114.1-373.9-130.7-376.7 122.4-371.6 129.8"/><path d="m2279 1698 465.6-640.9 208.2-640.9-128.7-396.1"/><path d="m2279 416.7 673.9-0.00197"/><path d="m2279 416.7-753.4 244.8-545.2 396.1-128.7 396.1"/><path d="m1525 661.5 208.2-640.9"/><path d="m1525 661.5v792.2l208.2 640.9 168.5 122.4 168.4 130.8"/><path d="m1525 1454-545.2-396.1"/><path d="m1525 1454 753.4 244.8h336.9l336.9 1e-3 168.5-122.4 159.8-125"/><path d="m2279 1698-545.2 396.1"/><path d="m2744 1058 208.2 640.9"/><path d="m3281 664.4-159.8-125.3-168.5-122.4"/><path d="m2071-224.3-336.9 244.8"/><path d="m851.5 661.5 128.7 396.1"/><path d="m1322 2087 203.1 7.09h208.2"/><path d="m2824 2095 128.7-396.1"/><path d="m2824 20.55-212.2 7.411-206.8 0.0032-541.4 393.3-462.4 636.4-206.8 636.4"/><path d="m2071-224.3 167.1 130.7 167.3 121.5"/><path d="m1322 27.96-127.8 393.3 206.8 636.4 462.4 636.4 541.4 393.3"/><path d="m851.5 1454 175.7 118.9 167.3 121.5h334.6l334.6-1e-3 748.1-243.1"/><path d="m1322 2087-127.8-393.3"/><path d="m2070 2348 167.2-138.7 167.3-121.5 206.8-636.4"/><path d="m3281 1451-127.8-393.3-541.4-393.3-748.1-243.1-669.2-0.00198"/><path d="m3281 664.4-127.8 393.3-541.4 393.3"/><path d="m2612 664.4-206.8-636.4"/><path d="m2612 664.4v786.6"/><path d="m1230 1913 295.3 181.6 376.7 122.4 345.6 26.69 376.7-122.4 263.9-224.7 232.8-320.5 132.2-320.4v-396.1l-132.2-320.4-232.8-320.5-263.9-224.7-376.7-122.4-345.6 26.69-376.7 122.4-295.3 181.6-232.8 320.5-81.42 336.9v396.1l81.42 336.9 232.8 320.5 226.4 4.298h334.6l343.2-26.5 374.1-121.5 293.2-180.3"/><path d="m2248-128.5-185.9 130-270.7 196.7-262.1 223.2-231.2 318.2-131.3 318.2-98.07 334.6-71.25 200.2 93.79 176.7 167.3 121.5 262.1 223.2 173.4 103 200.7 18.55 167.3-121.5 279.3-859.6"/><path d="m2508 1769-270.7-196.7"/><path d="m997.3 522.6 64.35 198 105 337.1 131.3 318.2 231.2 318.2 262.1 223.2 270.7 196.7 185.9 129.7 196.8-34.63 167.3-121.5 293.2-180.3 151.8-133.1 79.39-185.1 80.85-334.6"/><path d="m2612 1058-270.7-196.7-374.1-121.5h-334.6"/><path d="m3136 526.5-51.33 210.6-202.4 123.9-541.4 393.3"/><path d="m2341 861v393.3"/><path d="m2802 526.5 80.85 334.6v393.3l-80.85 334.6"/><path d="m2612 1058 270.7 196.7"/><path d="m1529 1694-72.51 223.2 68.85 177.3 168.5 122.4"/><path d="m3253 859.5-168.5-122.4-283.3-210.6-293.2-180.3-374.1-121.5-343.2-26.5-344.1-13.49-216.9 17.47-139 144.1-63.9 196.7-131.3 318.2-44.41 196.5 44.41 196.8 172.6 137.9 229.3-16.37 334.6-9e-4h334.6l374.1-121.5"/><path d="m1529 1694 103.4-318.2"/><path d="m2802 526.5-98.81-324.3-78.38-208.2-179.9-87.46-206.8 0.0034-343.2-26.5-200.7 18.23-173.4 103.3-73.4 183.2 82.01 236.7 103.4 318.2 103.4 318.2 231.2 318.2 270.7 196.7"/><path d="m1298 739.5 334.6 1e-3"/><path d="m2134 224.6-72.51-223.2-159.7-103.3-208.2-3e-3"/><path d="m1798 1256 376.7 122.4h910.2l168.5-122.4 27.61-197.9-63.9-196.7-80.85-334.6-79.39-185.5-151.8-132.8-202.2-6.135-194.4 144.1-541.4 393.3-231.2 318.2-103.4 318.2"/><path d="m2134 224.6 103.4 318.2"/><path d="m3253 859.5 27.61 198.2-63.9 196.7-132.2 123.6"/><path d="m3217 861v393.3"/><path d="m2624 2121-179.9 87.77h-206.8l-175.9-95.05"/><path d="m2612 2087-374.1 121.5"/><path d="m1258 1891 198.2 26.5"/><path d="m1520 2114-63.9-196.7"/><path d="m1230 1913-139-143.7-63.9-196.7 41.36-180.3"/><path d="m1258 1891-231.2-318.2"/><path d="m997.3 522.6 93.79-176.4 167.3-121.5 188.7-39.98"/><path d="m1027 542.8 231.2-318.2"/><path d="m2238-93.58-175.9 95.05"/><path d="m1895-120.1 167.3 121.5"/><path d="m2248-128.5 196.8 34.95 167.3 121.5 91.02 174.2"/><path d="m2238-93.58 374.1 121.5"/><path d="m3121 1576-36.3-198-202.4-123.6"/><path d="m1798 859.5v396.1l104.1 320.4 104.1 320.4 345.6 26.69 332.5-5.894 204.1-20.79 168.5-122.4"/><path d="m3121 1576-64.35 198.1"/><path d="m2624 2121 59.87-203.9 117.3-328.3"/><path d="m1902 2217h-208.2"/><path d="m915.8 1256 152.7 136.7"/><path d="m2407 1058-232.8-320.4-545.2-396.1-295.3 181.6-272.6 198-145.8 138.9-64.35 198"/><path d="m915.8 1256-64.35-198"/><path d="m1525 20.55 168.5-122.4"/><path d="m2849 1378 132.2-320.4 104.1-320.4 36.3-198-64.35-198.1"/><path d="m2888 218.6 168.5 122.4"/><path d="m2981 1058 104.1 320.4"/><path d="m2407 1058 208.2 640.9 68.54 218.8"/><path d="m2849 1378-232.8 320.4"/><path d="m2175 1378 232.8-320.4 104.1-320.4 104.1-320.4 87.05-214.5"/><path d="m2175 1378-545.2 396.1-173 143.2"/><path d="m2006 1896-376.7-122.4"/><path d="m2175 737.1-376.7 122.4-545.2 396.1 81.42 336.9 122.3 324.8"/><path d="m1253 1256-184.3 136.7"/><path d="m1798 1256-736.3-535"/><path d="m1253 1256v-396.1"/><path d="m1798 859.5 208.2-640.9 55.59-217.1"/><path d="m1629 341 376.7-122.4"/><path d="m2616 416.7-263.9-224.7-290-190.5"/><path d="m2175 737.1h336.9l336.9-9.8e-4h236.3"/><path d="m2616 416.7 232.8 320.4"/><path d="m2981 1058-132.2-320.4"/><path d="m2352 191.9-345.6 26.69"/><path d="m1334 522.6-81.42 336.9"/><path d="m1334 1593 295.3 181.6"/><path d="m2352 1923 263.9-224.7"/><path d="m3136 526.5-231.2-318.2-293.2-180.3"/><path d="m1895-120.1-374.1 121.5-262.1 223.2"/><path d="m895.9 861v393.3l131.3 318.2"/><path d="m1520 2114 374.1 121.5 343.2-26.5"/><path d="m2905 1907 231.2-318.2-51.33-211"/><path d="m2341 861-103.4-318.2"/><path d="m2508 1769 175.9 148"/><path d="m1298 739.5-236.2-18.89"/><path d="m3217 861-132.2-123.9"/><path d="m2612 2087 72.5-170.2"/><path d="m2905 1907-220.7 10.12"/><path d="m1027 542.8 34.47 177.8"/><path d="m895.9 861 165.7-140.4"/><path d="m1902 2217 159.7-103"/><path d="m1525 20.55-78.35 164.1"/><path d="m2888 218.6-185.5-16.49"/><path d="m2006 1896 55.59 217.5"/><path d="m2352 1923-290 190.8"/><path d="m1629 341-182.5-156.4"/><path d="m1334 522.6 112.8-337.9"/><path d="m2352 191.9 351 10.2"/></g></svg>
