<svg version="1.1" viewBox="0 0 365.2 365.2" xmlns="http://www.w3.org/2000/svg" xmlns:xlink="http://www.w3.org/1999/xlink"><g transform="translate(-33.86 -21.45)"><g transform="translate(30.44 -44.83)"><g transform="translate(20.09 15.33)"><path transform="translate(-23.55 -35.95)" d="m115.6 113.5c-2.897 0.0514-6.138 0.5218-9.748 1.441-24.87 6.767-78.91 350.7 86.3 338.9 9.502 0 54.38 7.954 66.76-6.059 2.623-3.914-0.1423-8.592-2.986-11.62-1.99-2.163-4.202-4.113-6.451-6.021 14.07-75.83 14.58-100.4 24.92-93.3 6.254 1.518 14.19 1.71 18.96-3.105 3.845-4.94-0.9843-10.82-4.779-14.28-3.061-3.06-7.998-4.705-9.797-8.559-3.644-7.811-3.007-17.52-0.1992-25.63 4.4-12.72 15.12-23.24 25.33-32.15 10.58-9.235 24.87-8.251 36.13-21.13 7.68-12.26-8.97-18.61-16.17-25.52-10.84-10.42-38.8-22.23-38.8-22.23-2.275-12.86-13.62-9.563-15.05 1.479-11.97-13.8-23.99-10.5-22.94 7.422-0.045 3.458-6.19 28.05-16.01 41.43-14.31 21.93-35.66 42.09-50.02 64.11-17.24 24.38-34.67 50.81-38.39 79.86-1.838 14.34 0.4594 29.96 8.441 42.6-25.93-8.708-30.24-39.22-37-62.13-22.05-74.69 60.43-246.5 1.508-245.5zm170.9 89.21c2.155-8e-3 4.54 0.3099 6.986 0.9902 7.828 2.176 13.32 7.235 12.28 11.3-1.048 4.062-8.246 5.589-16.07 3.412-7.829-2.177-13.32-7.233-12.28-11.29 0.7212-2.793 4.348-4.388 9.088-4.404z" fill="#fff" style="text-indent:0;text-transform:none"/></g></g></g></svg>
