<svg version="1.0" viewBox="0 0 4096 2160" xmlns="http://www.w3.org/2000/svg"><g transform="translate(-21.49 -.006531)"><rect x="21.49" y=".00653" width="4096" height="2160" fill="#2ca02c" stop-color="#000000"/><g transform="matrix(1.06 0 0 1.06 1169 -45.41)" fill="none" stroke-linecap="round" stroke-width="3.501"><path d="m1719 2140 351.8-1083 104.3-320.6 250.2-769.9" stroke="#f5f2f2"/><path d="m931.9 1058h1138l921 669.2" stroke="#efeaea"/><path d="m3085 1378-93.42 348.9-86.44 180.3-81.01 187.4-212.2-7.097h-206.8l-686.4 53-396.4-52.99-92.16-174.5-87.05-181.6-74.52-339.1-88.32-334.7 162.8-673.9 87.05-181.6 92.16-174.2 396.4-52.99 686.4 53 297.8 174.2 288.6 186.4 289.5 275.8-27.61 195.1-36.29 198-264.4 640.9-268.4 218.8-259.4 230.6-177.1 95.72-177.2 104.1-176-112.2-175.9-95.05-524.2-446.3-125.9-301.8" stroke="#f1eeee"/><path d="m2070 1058 921-669.2" stroke="#d0c7c7"/><path d="m1719-25.03 351.8 1083 104.3 320.3 250.2 769.9" stroke="#d4cdcd"/><path d="m1334 1593-265.7-200.2-136.6-334.6-36.04-196.7-44.41-199.6 175.7-118.6 167.3-121.5 252.6-236.6 271.6-209.7 175.9-95.05 176.1-104.2 354.3 191.4 278 234.9 249.9 214.5 264.4 640.9 36.29 198 27.61 195.4-289.5 275.8-307.2 190.4-279.3 170.2" stroke="#e2d9da"/><path d="m2824 2095-399.1 53.36-363-33.97-328.2-19.41-277.1-177.3-313.5-185.9-291.5-277.8 44.41-199.3 36.04-196.7 129.7-337.1 132.8-299.3" stroke="#f2efef"/><path d="m851.5 661.5 291.5-277.8 304-199 286.6-164.1 328.2-19.09 363-34.28 399.1 53.36 81.01 187.7 86.44 180.3 93.42 348.6 68.28 320.6-68.28 320.3-283.3 211" stroke="#e3e0e0"/><path d="m3217 1058h-809.5l-337.1 0.157-927.4 673.7" stroke="#d4cbcc"/><path d="m2070 1058-272.4-198.2-654.9-475.8" stroke="#f8f7f7"/><path d="m2744 1058-465.6-640.9-545.2-396.1-208.2-0.003418-203.1 7.405-231.2 318.2-239.6 315.3v792.2l239.6 315.6 231.2 318.2 371.6 129.5 376.6 130.8 374-138.7 379.5-114.5 232.8-320.5 224.1-323.1v-786.6l-224.1-323.4-232.8-320.5-379.5-114.1-373.9-130.7-376.7 122.4-371.6 129.8" stroke="#e7e1e0"/><path d="m2279 1698 465.6-640.9 208.2-640.9-128.7-396.1" stroke="#f1eeee"/><path d="m2279 416.7 673.9-0.00197" stroke="#fefdfd"/><path d="m2279 416.7-753.4 244.8-545.2 396.1-128.7 396.1" stroke="#f4f1f1"/><path d="m1525 661.5 208.2-640.9" stroke="#d7d2d3"/><path d="m1525 661.5v792.2l208.2 640.9 168.5 122.4 168.4 130.8" stroke="#f4f3f3"/><path d="m1525 1454-545.2-396.1" stroke="#d8d1d1"/><path d="m1525 1454 753.4 244.8h336.9l336.9 1e-3 168.5-122.4 159.8-125" stroke="#d2c9ca"/><path d="m2279 1698-545.2 396.1" stroke="#f9f8f8"/><path d="m2744 1058 208.2 640.9" stroke="#e8e4e3"/><path d="m3281 664.4-159.8-125.3-168.5-122.4" stroke="#f9f8f8"/><path d="m2071-224.3-336.9 244.8" stroke="#d9d4d4"/><path d="m851.5 661.5 128.7 396.1" stroke="#ded7d7"/><path d="m1322 2087 203.1 7.09h208.2" stroke="#e7e2e2"/><path d="m2824 2095 128.7-396.1" stroke="#d5c9c8"/><path d="m2824 20.55-212.2 7.411-206.8 0.0032-541.4 393.3-462.4 636.4-206.8 636.4" stroke="#d3cacb"/><path d="m2071-224.3 167.1 130.7 167.3 121.5" stroke="#f6f3f3"/><path d="m1322 27.96-127.8 393.3 206.8 636.4 462.4 636.4 541.4 393.3" stroke="#e4dfdf"/><path d="m851.5 1454 175.7 118.9 167.3 121.5h334.6l334.6-1e-3 748.1-243.1" stroke="#ede8e8"/><path d="m1322 2087-127.8-393.3" stroke="#d3c9c8"/><path d="m2070 2348 167.2-138.7 167.3-121.5 206.8-636.4" stroke="#cfc8c9"/><path d="m3281 1451-127.8-393.3-541.4-393.3-748.1-243.1-669.2-0.00198" stroke="#e2dbdb"/><path d="m3281 664.4-127.8 393.3-541.4 393.3" stroke="#ede8e9"/><path d="m2612 664.4-206.8-636.4" stroke="#dfd7d6"/><path d="m2612 664.4v786.6" stroke="#f7f4f4"/><path d="m1230 1913 295.3 181.6 376.7 122.4 345.6 26.69 376.7-122.4 263.9-224.7 232.8-320.5 132.2-320.4v-396.1l-132.2-320.4-232.8-320.5-263.9-224.7-376.7-122.4-345.6 26.69-376.7 122.4-295.3 181.6-232.8 320.5-81.42 336.9v396.1l81.42 336.9 232.8 320.5 226.4 4.298h334.6l343.2-26.5 374.1-121.5 293.2-180.3" stroke="#e2dddd"/><path d="m2248-128.5-185.9 130-270.7 196.7-262.1 223.2-231.2 318.2-131.3 318.2-98.07 334.6-71.25 200.2 93.79 176.7 167.3 121.5 262.1 223.2 173.4 103 200.7 18.55 167.3-121.5 279.3-859.6" stroke="#fdfcfc"/><path d="m2508 1769-270.7-196.7" stroke="#f3f0f0"/><path d="m997.3 522.6 64.35 198 105 337.1 131.3 318.2 231.2 318.2 262.1 223.2 270.7 196.7 185.9 129.7 196.8-34.63 167.3-121.5 293.2-180.3 151.8-133.1 79.39-185.1 80.85-334.6" stroke="#f3f2f2"/><path d="m2612 1058-270.7-196.7-374.1-121.5h-334.6" stroke="#e9e6e6"/><path d="m3136 526.5-51.33 210.6-202.4 123.9-541.4 393.3" stroke="#e9e4e4"/><path d="m2341 861v393.3" stroke="#dbd3d2"/><path d="m2802 526.5 80.85 334.6v393.3l-80.85 334.6" stroke="#e7e4e4"/><path d="m2612 1058 270.7 196.7" stroke="#e0d7d7"/><path d="m1529 1694-72.51 223.2 68.85 177.3 168.5 122.4" stroke="#ebe7e6"/><path d="m3253 859.5-168.5-122.4-283.3-210.6-293.2-180.3-374.1-121.5-343.2-26.5-344.1-13.49-216.9 17.47-139 144.1-63.9 196.7-131.3 318.2-44.41 196.5 44.41 196.8 172.6 137.9 229.3-16.37 334.6-9e-4h334.6l374.1-121.5" stroke="#f3f1f0"/><path d="m1529 1694 103.4-318.2" stroke="#e3e0e0"/><path d="m2802 526.5-98.81-324.3-78.38-208.2-179.9-87.46-206.8 0.0034-343.2-26.5-200.7 18.23-173.4 103.3-73.4 183.2 82.01 236.7 103.4 318.2 103.4 318.2 231.2 318.2 270.7 196.7" stroke="#d8cdcd"/><path d="m1298 739.5 334.6 1e-3" stroke="#f1eeee"/><path d="m2134 224.6-72.51-223.2-159.7-103.3-208.2-3e-3" stroke="#e2dbdc"/><path d="m1798 1256 376.7 122.4h910.2l168.5-122.4 27.61-197.9-63.9-196.7-80.85-334.6-79.39-185.5-151.8-132.8-202.2-6.135-194.4 144.1-541.4 393.3-231.2 318.2-103.4 318.2" stroke="#e8dfe1"/><path d="m2134 224.6 103.4 318.2" stroke="#e7e3e2"/><path d="m3253 859.5 27.61 198.2-63.9 196.7-132.2 123.6" stroke="#d6cac9"/><path d="m3217 861v393.3" stroke="#d9d1d0"/><path d="m2624 2121-179.9 87.77h-206.8l-175.9-95.05" stroke="#d2cdcd"/><path d="m2612 2087-374.1 121.5" stroke="#d6cecd"/><path d="m1258 1891 198.2 26.5" stroke="#eae3e4"/><path d="m1520 2114-63.9-196.7" stroke="#e4dbdb"/><path d="m1230 1913-139-143.7-63.9-196.7 41.36-180.3" stroke="#d3cacb"/><path d="m1258 1891-231.2-318.2" stroke="#f5f2f2"/><path d="m997.3 522.6 93.79-176.4 167.3-121.5 188.7-39.98" stroke="#f7f6f6"/><path d="m1027 542.8 231.2-318.2" stroke="#fcfbfb"/><path d="m2238-93.58-175.9 95.05" stroke="#f8f5f5"/><path d="m1895-120.1 167.3 121.5" stroke="#f1f0f0"/><path d="m2248-128.5 196.8 34.95 167.3 121.5 91.02 174.2" stroke="#f7f6f6"/><path d="m2238-93.58 374.1 121.5" stroke="#f7f6f6"/><path d="m3121 1576-36.3-198-202.4-123.6" stroke="#cfc9c8"/><path d="m1798 859.5v396.1l104.1 320.4 104.1 320.4 345.6 26.69 332.5-5.894 204.1-20.79 168.5-122.4" stroke="#e0d9da"/><path d="m3121 1576-64.35 198.1" stroke="#f4f3f3"/><path d="m2624 2121 59.87-203.9 117.3-328.3" stroke="#ede8e8"/><path d="m1902 2217h-208.2" stroke="#d5cdcc"/><path d="m915.8 1256 152.7 136.7" stroke="#e6dfe0"/><path d="m2407 1058-232.8-320.4-545.2-396.1-295.3 181.6-272.6 198-145.8 138.9-64.35 198" stroke="#d5c8c8"/><path d="m915.8 1256-64.35-198" stroke="#f6f4f3"/><path d="m1525 20.55 168.5-122.4" stroke="#e1dcdc"/><path d="m2849 1378 132.2-320.4 104.1-320.4 36.3-198-64.35-198.1" stroke="#f9f8f8"/><path d="m2888 218.6 168.5 122.4" stroke="#ebe5e4"/><path d="m2981 1058 104.1 320.4" stroke="#e6e1e1"/><path d="m2407 1058 208.2 640.9 68.54 218.8" stroke="#ded7d7"/><path d="m2849 1378-232.8 320.4" stroke="#ded9d9"/><path d="m2175 1378 232.8-320.4 104.1-320.4 104.1-320.4 87.05-214.5" stroke="#fcfbfb"/><path d="m2175 1378-545.2 396.1-173 143.2" stroke="#eae3e4"/><path d="m2006 1896-376.7-122.4" stroke="#ded7d7"/><path d="m2175 737.1-376.7 122.4-545.2 396.1 81.42 336.9 122.3 324.8" stroke="#e7e2e2"/><path d="m1253 1256-184.3 136.7" stroke="#e2dddd"/><path d="m1798 1256-736.3-535" stroke="#e4e1e1"/><path d="m1253 1256v-396.1" stroke="#d2cdcd"/><path d="m1798 859.5 208.2-640.9 55.59-217.1" stroke="#fdfcfc"/><path d="m1629 341 376.7-122.4" stroke="#e1d8d8"/><path d="m2616 416.7-263.9-224.7-290-190.5" stroke="#f7f4f5"/><path d="m2175 737.1h336.9l336.9-9.8e-4h236.3" stroke="#fcfbfb"/><path d="m2616 416.7 232.8 320.4" stroke="#e5dede"/><path d="m2981 1058-132.2-320.4" stroke="#e2dcdb"/><path d="m2352 191.9-345.6 26.69" stroke="#ded6d5"/><path d="m1334 522.6-81.42 336.9" stroke="#e5e1e0"/><path d="m1334 1593 295.3 181.6" stroke="#ede8e8"/><path d="m2352 1923 263.9-224.7" stroke="#fdfcfc"/><path d="m3136 526.5-231.2-318.2-293.2-180.3" stroke="#fdfcfc"/><path d="m1895-120.1-374.1 121.5-262.1 223.2" stroke="#e5dcdd"/><path d="m895.9 861v393.3l131.3 318.2" stroke="#f0eded"/><path d="m1520 2114 374.1 121.5 343.2-26.5" stroke="#e6e1e2"/><path d="m2905 1907 231.2-318.2-51.33-211" stroke="#eae6e5"/><path d="m2341 861-103.4-318.2" stroke="#d4c7c7"/><path d="m2508 1769 175.9 148" stroke="#d4c9c7"/><path d="m1298 739.5-236.2-18.89" stroke="#d3cccd"/><path d="m3217 861-132.2-123.9" stroke="#d3c8c6"/><path d="m2612 2087 72.5-170.2" stroke="#ede7e6"/><path d="m2905 1907-220.7 10.12" stroke="#d6cccb"/><path d="m1027 542.8 34.47 177.8" stroke="#e0d9da"/><path d="m895.9 861 165.7-140.4" stroke="#d3c4c5"/><path d="m1902 2217 159.7-103" stroke="#fcfbfb"/><path d="m1525 20.55-78.35 164.1" stroke="#eae5e6"/><path d="m2888 218.6-185.5-16.49" stroke="#edeaea"/><path d="m2006 1896 55.59 217.5" stroke="#e1d7d6"/><path d="m2352 1923-290 190.8" stroke="#dcd7d7"/><path d="m1629 341-182.5-156.4" stroke="#e1dcdd"/><path d="m1334 522.6 112.8-337.9" stroke="#e7e4e4"/><path d="m2352 191.9 351 10.2" stroke="#d9cdcc"/></g><g transform="matrix(1.06 0 0 1.06 -1409 -45.41)" fill="none" stroke-linecap="round" stroke-width="3.501"><path d="m1719 2140 351.8-1083 104.3-320.6 250.2-769.9" stroke="#fcfbfb"/><path d="m931.9 1058h1138l921 669.2" stroke="#e2e2e2"/><path d="m3085 1378-93.42 348.9-86.44 180.3-81.01 187.4-212.2-7.097h-206.8l-686.4 53-396.4-52.99-92.16-174.5-87.05-181.6-74.52-339.1-88.32-334.7 162.8-673.9 87.05-181.6 92.16-174.2 396.4-52.99 686.4 53 297.8 174.2 288.6 186.4 289.5 275.8-27.61 195.1-36.29 198-264.4 640.9-268.4 218.8-259.4 230.6-177.1 95.72-177.2 104.1-176-112.2-175.9-95.05-524.2-446.3-125.9-301.8" stroke="#e9e8e8"/><path d="m2070 1058 921-669.2" stroke="#f3f2f2"/><path d="m1719-25.03 351.8 1083 104.3 320.3 250.2 769.9" stroke="#edeaea"/><path d="m1334 1593-265.7-200.2-136.6-334.6-36.04-196.7-44.41-199.6 175.7-118.6 167.3-121.5 252.6-236.6 271.6-209.7 175.9-95.05 176.1-104.2 354.3 191.4 278 234.9 249.9 214.5 264.4 640.9 36.29 198 27.61 195.4-289.5 275.8-307.2 190.4-279.3 170.2" stroke="#dfdede"/><path d="m2824 2095-399.1 53.36-363-33.97-328.2-19.41-277.1-177.3-313.5-185.9-291.5-277.8 44.41-199.3 36.04-196.7 129.7-337.1 132.8-299.3" stroke="#efeeee"/><path d="m851.5 661.5 291.5-277.8 304-199 286.6-164.1 328.2-19.09 363-34.28 399.1 53.36 81.01 187.7 86.44 180.3 93.42 348.6 68.28 320.6-68.28 320.3-283.3 211" stroke="#d9d5d4"/><path d="m3217 1058h-809.5l-337.1 0.157-927.4 673.7" stroke="#d0c9c9"/><path d="m2070 1058-272.4-198.2-654.9-475.8" stroke="#d6d1d1"/><path d="m2744 1058-465.6-640.9-545.2-396.1-208.2-0.003418-203.1 7.405-231.2 318.2-239.6 315.3v792.2l239.6 315.6 231.2 318.2 371.6 129.5 376.6 130.8 374-138.7 379.5-114.5 232.8-320.5 224.1-323.1v-786.6l-224.1-323.4-232.8-320.5-379.5-114.1-373.9-130.7-376.7 122.4-371.6 129.8" stroke="#dfdbda"/><path d="m2279 1698 465.6-640.9 208.2-640.9-128.7-396.1" stroke="#d4d3d3"/><path d="m2279 416.7 673.9-0.00197" stroke="#faf9f9"/><path d="m2279 416.7-753.4 244.8-545.2 396.1-128.7 396.1" stroke="#dcdbdb"/><path d="m1525 661.5 208.2-640.9" stroke="#dbd6d6"/><path d="m1525 661.5v792.2l208.2 640.9 168.5 122.4 168.4 130.8" stroke="#d0cdcd"/><path d="m1525 1454-545.2-396.1" stroke="#dddcdc"/><path d="m1525 1454 753.4 244.8h336.9l336.9 1e-3 168.5-122.4 159.8-125" stroke="#faf9f9"/><path d="m2279 1698-545.2 396.1" stroke="#f7f6f6"/><path d="m2744 1058 208.2 640.9" stroke="#ebeaea"/><path d="m3281 664.4-159.8-125.3-168.5-122.4" stroke="#efeeee"/><path d="m2071-224.3-336.9 244.8" stroke="#f3f2f2"/><path d="m851.5 661.5 128.7 396.1" stroke="#d0cfcf"/><path d="m1322 2087 203.1 7.09h208.2" stroke="#f8f7f7"/><path d="m2824 2095 128.7-396.1" stroke="#d8d3d3"/><path d="m2824 20.55-212.2 7.411-206.8 0.0032-541.4 393.3-462.4 636.4-206.8 636.4" stroke="#f8f7f7"/><path d="m2071-224.3 167.1 130.7 167.3 121.5" stroke="#cfcaca"/><path d="m1322 27.96-127.8 393.3 206.8 636.4 462.4 636.4 541.4 393.3" stroke="#f5f4f4"/><path d="m851.5 1454 175.7 118.9 167.3 121.5h334.6l334.6-1e-3 748.1-243.1" stroke="#dad7d7"/><path d="m1322 2087-127.8-393.3" stroke="#d8d3d3"/><path d="m2070 2348 167.2-138.7 167.3-121.5 206.8-636.4" stroke="#faf9f9"/><path d="m3281 1451-127.8-393.3-541.4-393.3-748.1-243.1-669.2-0.00198" stroke="#f3f2f2"/><path d="m3281 664.4-127.8 393.3-541.4 393.3" stroke="#d7d2d2"/><path d="m2612 664.4-206.8-636.4" stroke="#dedad9"/><path d="m2612 664.4v786.6" stroke="#d0cfcf"/><path d="m1230 1913 295.3 181.6 376.7 122.4 345.6 26.69 376.7-122.4 263.9-224.7 232.8-320.5 132.2-320.4v-396.1l-132.2-320.4-232.8-320.5-263.9-224.7-376.7-122.4-345.6 26.69-376.7 122.4-295.3 181.6-232.8 320.5-81.42 336.9v396.1l81.42 336.9 232.8 320.5 226.4 4.298h334.6l343.2-26.5 374.1-121.5 293.2-180.3" stroke="#dfd9d8"/><path d="m2248-128.5-185.9 130-270.7 196.7-262.1 223.2-231.2 318.2-131.3 318.2-98.07 334.6-71.25 200.2 93.79 176.7 167.3 121.5 262.1 223.2 173.4 103 200.7 18.55 167.3-121.5 279.3-859.6" stroke="#f0eded"/><path d="m2508 1769-270.7-196.7" stroke="#fdfcfc"/><path d="m997.3 522.6 64.35 198 105 337.1 131.3 318.2 231.2 318.2 262.1 223.2 270.7 196.7 185.9 129.7 196.8-34.63 167.3-121.5 293.2-180.3 151.8-133.1 79.39-185.1 80.85-334.6" stroke="#d9d6d6"/><path d="m2612 1058-270.7-196.7-374.1-121.5h-334.6" stroke="#e8e6e5"/><path d="m3136 526.5-51.33 210.6-202.4 123.9-541.4 393.3" stroke="#e0dddd"/><path d="m2341 861v393.3" stroke="#f7f6f6"/><path d="m2802 526.5 80.85 334.6v393.3l-80.85 334.6" stroke="#cfcece"/><path d="m2612 1058 270.7 196.7" stroke="#ddd8d8"/><path d="m1529 1694-72.51 223.2 68.85 177.3 168.5 122.4" stroke="#ebe8e8"/><path d="m3253 859.5-168.5-122.4-283.3-210.6-293.2-180.3-374.1-121.5-343.2-26.5-344.1-13.49-216.9 17.47-139 144.1-63.9 196.7-131.3 318.2-44.41 196.5 44.41 196.8 172.6 137.9 229.3-16.37 334.6-9e-4h334.6l374.1-121.5" stroke="#dad7d7"/><path d="m1529 1694 103.4-318.2" stroke="#fbfafa"/><path d="m2802 526.5-98.81-324.3-78.38-208.2-179.9-87.46-206.8 0.0034-343.2-26.5-200.7 18.23-173.4 103.3-73.4 183.2 82.01 236.7 103.4 318.2 103.4 318.2 231.2 318.2 270.7 196.7" stroke="#f3f2f2"/><path d="m1298 739.5 334.6 1e-3" stroke="#dfdcdc"/><path d="m2134 224.6-72.51-223.2-159.7-103.3-208.2-3e-3" stroke="#e8e5e6"/><path d="m1798 1256 376.7 122.4h910.2l168.5-122.4 27.61-197.9-63.9-196.7-80.85-334.6-79.39-185.5-151.8-132.8-202.2-6.135-194.4 144.1-541.4 393.3-231.2 318.2-103.4 318.2" stroke="#d0c8c7"/><path d="m2134 224.6 103.4 318.2" stroke="#e7e4e4"/><path d="m3253 859.5 27.61 198.2-63.9 196.7-132.2 123.6" stroke="#dcd6d5"/><path d="m3217 861v393.3" stroke="#dfdbda"/><path d="m2624 2121-179.9 87.77h-206.8l-175.9-95.05" stroke="#e5e2e2"/><path d="m2612 2087-374.1 121.5" stroke="#eae9e9"/><path d="m1258 1891 198.2 26.5" stroke="#d1cccc"/><path d="m1520 2114-63.9-196.7" stroke="#f6f5f5"/><path d="m1230 1913-139-143.7-63.9-196.7 41.36-180.3" stroke="#ebeaea"/><path d="m1258 1891-231.2-318.2" stroke="#f9f9f9"/><path d="m997.3 522.6 93.79-176.4 167.3-121.5 188.7-39.98" stroke="#fefdfd"/><path d="m1027 542.8 231.2-318.2" stroke="#f7f6f6"/><path d="m2238-93.58-175.9 95.05" stroke="#e7e4e5"/><path d="m1895-120.1 167.3 121.5" stroke="#dbd9d8"/><path d="m2248-128.5 196.8 34.95 167.3 121.5 91.02 174.2" stroke="#d0cdcd"/><path d="m2238-93.58 374.1 121.5" stroke="#faf9f9"/><path d="m3121 1576-36.3-198-202.4-123.6" stroke="#e0dfdf"/><path d="m1798 859.5v396.1l104.1 320.4 104.1 320.4 345.6 26.69 332.5-5.894 204.1-20.79 168.5-122.4" stroke="#f2f1f1"/><path d="m3121 1576-64.35 198.1" stroke="#f3f2f2"/><path d="m2624 2121 59.87-203.9 117.3-328.3" stroke="#d8d3d3"/><path d="m1902 2217h-208.2" stroke="#ece9e9"/><path d="m915.8 1256 152.7 136.7" stroke="#fdfcfc"/><path d="m2407 1058-232.8-320.4-545.2-396.1-295.3 181.6-272.6 198-145.8 138.9-64.35 198" stroke="#f7f6f6"/><path d="m915.8 1256-64.35-198" stroke="#d4d4d4"/><path d="m1525 20.55 168.5-122.4" stroke="#e0dbdc"/><path d="m2849 1378 132.2-320.4 104.1-320.4 36.3-198-64.35-198.1" stroke="#e2dddd"/><path d="m2888 218.6 168.5 122.4" stroke="#e2e1e1"/><path d="m2981 1058 104.1 320.4" stroke="#cfc8c9"/><path d="m2407 1058 208.2 640.9 68.54 218.8" stroke="#e7e4e4"/><path d="m2849 1378-232.8 320.4" stroke="#eae9e9"/><path d="m2175 1378 232.8-320.4 104.1-320.4 104.1-320.4 87.05-214.5" stroke="#cfcece"/><path d="m2175 1378-545.2 396.1-173 143.2" stroke="#f4f3f3"/><path d="m2006 1896-376.7-122.4" stroke="#eeeded"/><path d="m2175 737.1-376.7 122.4-545.2 396.1 81.42 336.9 122.3 324.8" stroke="#d5d0d0"/><path d="m1253 1256-184.3 136.7" stroke="#fcfbfb"/><path d="m1798 1256-736.3-535" stroke="#d8d7d7"/><path d="m1253 1256v-396.1" stroke="#fcfbfb"/><path d="m1798 859.5 208.2-640.9 55.59-217.1" stroke="#e6e3e3"/><path d="m1629 341 376.7-122.4" stroke="#e7e4e4"/><path d="m2616 416.7-263.9-224.7-290-190.5" stroke="#d6d3d3"/><path d="m2175 737.1h336.9l336.9-9.8e-4h236.3" stroke="#edecec"/><path d="m2616 416.7 232.8 320.4" stroke="#e9e6e7"/><path d="m2981 1058-132.2-320.4" stroke="#f5f4f4"/><path d="m2352 191.9-345.6 26.69" stroke="#e8e5e5"/><path d="m1334 522.6-81.42 336.9" stroke="#f4f3f3"/><path d="m1334 1593 295.3 181.6" stroke="#f9f8f8"/><path d="m2352 1923 263.9-224.7" stroke="#faf9f9"/><path d="m3136 526.5-231.2-318.2-293.2-180.3" stroke="#d6d1d1"/><path d="m1895-120.1-374.1 121.5-262.1 223.2" stroke="#d6d1d1"/><path d="m895.9 861v393.3l131.3 318.2" stroke="#d3cecf"/><path d="m1520 2114 374.1 121.5 343.2-26.5" stroke="#dcdbdb"/><path d="m2905 1907 231.2-318.2-51.33-211" stroke="#f6f5f5"/><path d="m2341 861-103.4-318.2" stroke="#f9f8f8"/><path d="m2508 1769 175.9 148" stroke="#f4f3f3"/><path d="m1298 739.5-236.2-18.89" stroke="#cfcccc"/><path d="m3217 861-132.2-123.9" stroke="#d0cdcd"/><path d="m2612 2087 72.5-170.2" stroke="#f5f5f5"/><path d="m2905 1907-220.7 10.12" stroke="#f8f7f7"/><path d="m1027 542.8 34.47 177.8" stroke="#dad5d6"/><path d="m895.9 861 165.7-140.4" stroke="#fbfafa"/><path d="m1902 2217 159.7-103" stroke="#e6e3e3"/><path d="m1525 20.55-78.35 164.1" stroke="#e1e0e0"/><path d="m2888 218.6-185.5-16.49" stroke="#d0cccb"/><path d="m2006 1896 55.59 217.5" stroke="#faf9f9"/><path d="m2352 1923-290 190.8" stroke="#e6e3e3"/><path d="m1629 341-182.5-156.4" stroke="#fbfafa"/><path d="m1334 522.6 112.8-337.9" stroke="#d4cfd0"/><path d="m2352 191.9 351 10.2" stroke="#f1f0f0"/></g></g></svg>
