<?xml version="1.0" encoding="UTF-8" standalone="no"?>
<svg
   xmlns:dc="http://purl.org/dc/elements/1.1/"
   xmlns:cc="http://creativecommons.org/ns#"
   xmlns:rdf="http://www.w3.org/1999/02/22-rdf-syntax-ns#"
   xmlns:svg="http://www.w3.org/2000/svg"
   xmlns="http://www.w3.org/2000/svg"
   xmlns:xlink="http://www.w3.org/1999/xlink"
   xmlns:sodipodi="http://sodipodi.sourceforge.net/DTD/sodipodi-0.dtd"
   xmlns:inkscape="http://www.inkscape.org/namespaces/inkscape"
   width="365.19299"
   height="365.19299"
   version="1.1"
   id="svg25"
   sodipodi:docname="chimp.svg"
   inkscape:version="1.0.2 (e86c870879, 2021-01-15)"
   inkscape:export-filename="/home/kostas/Desktop/cho.png"
   inkscape:export-xdpi="96"
   inkscape:export-ydpi="96">
  <metadata
     id="metadata29">
    <rdf:RDF>
      <cc:Work
         rdf:about="">
        <dc:format>image/svg+xml</dc:format>
        <dc:type
           rdf:resource="http://purl.org/dc/dcmitype/StillImage" />
        <dc:title />
      </cc:Work>
    </rdf:RDF>
  </metadata>
  <sodipodi:namedview
     pagecolor="#ffffff"
     bordercolor="#666666"
     borderopacity="1"
     objecttolerance="10"
     gridtolerance="10"
     guidetolerance="10"
     inkscape:pageopacity="0"
     inkscape:pageshadow="2"
     inkscape:window-width="1366"
     inkscape:window-height="695"
     id="namedview27"
     showgrid="false"
     fit-margin-top="0"
     fit-margin-left="0"
     fit-margin-right="0"
     fit-margin-bottom="0"
     inkscape:zoom="1.0333333"
     inkscape:cx="9.214929"
     inkscape:cy="179.36327"
     inkscape:window-x="0"
     inkscape:window-y="0"
     inkscape:window-maximized="1"
     inkscape:current-layer="g860"
     inkscape:document-rotation="0" />
  <defs
     id="defs9">
    <radialGradient
       xlink:href="#a"
       id="b"
       cx="143.75"
       cy="102.946"
       fx="143.75"
       fy="102.946"
       r="37.75"
       gradientTransform="matrix(2.12427,0,0,1.4678,-161.614,-48.157)"
       gradientUnits="userSpaceOnUse" />
    <linearGradient
       id="a">
      <stop
         offset="0"
         stop-color="#ebc9b4"
         id="stop3" />
      <stop
         offset="1"
         stop-color="#8b776a"
         id="stop5" />
    </linearGradient>
    <radialGradient
       xlink:href="#a"
       id="c"
       cx="143.75"
       cy="140.634"
       fx="143.75"
       fy="140.634"
       r="37.75"
       gradientTransform="matrix(1,0,0,0.3107,0,96.94)"
       gradientUnits="userSpaceOnUse" />
  </defs>
  <g
     color="#000"
     id="g23"
     transform="translate(-33.85685,-21.449209)">
    <rect
       style="fill:#000000;stroke-width:1.56471"
       id="rect856"
       width="365.19299"
       height="365.19299"
       x="33.85685"
       y="21.449209"
       rx="182.5965"
       ry="182.5965" />
    <g
       id="g860"
       transform="translate(30.440135,-44.829922)">
      <g
         id="g841"
         transform="translate(20.085092,15.32914)">
        <path
           id="path17"
           style="line-height:normal;-inkscape-font-specification:Sans;text-indent:0;text-align:start;text-transform:none;fill:#ffffff;marker:none"
           d="m 115.55859,113.53125 c -2.89713,0.0514 -6.13792,0.5218 -9.74804,1.44141 -24.873762,6.76715 -78.906473,350.72784 86.30078,338.91211 9.502,0 54.38481,7.9544 66.75781,-6.0586 2.623,-3.914 -0.14233,-8.592 -2.98633,-11.625 -1.99,-2.163 -4.20217,-4.11348 -6.45117,-6.02148 14.071,-75.83 14.57697,-100.44969 24.91797,-93.30469 6.254,1.518 14.19008,1.70953 18.95508,-3.10547 3.845,-4.94 -0.9843,-10.81639 -4.7793,-14.27539 -3.061,-3.06 -7.99787,-4.70459 -9.79687,-8.55859 -3.644,-7.811 -3.00722,-17.51677 -0.19922,-25.63477 4.4,-12.72 15.12107,-23.24039 25.33008,-32.15039 10.57999,-9.235 24.87276,-8.25086 36.13476,-21.13086 7.68,-12.257 -8.96992,-18.60548 -16.16992,-25.52148 -10.842,-10.415 -38.80274,-22.22852 -38.80274,-22.22852 -2.275,-12.855 -13.61968,-9.56348 -15.05468,1.47852 -11.968,-13.804 -23.9855,-10.49913 -22.9375,7.42187 -0.045,3.458 -6.18977,28.05378 -16.00977,41.42578 -14.307,21.927 -35.66353,42.09438 -50.01953,64.10938 -17.241,24.384 -34.66863,50.80633 -38.39062,79.86133 -1.838,14.344 0.4594,29.95556 8.4414,42.60156 -25.927,-8.708 -30.235,-39.21877 -37,-62.13477 -22.049592,-74.69259 60.42643,-246.54736 1.50781,-245.50195 z m 170.94532,89.21094 c 2.15465,-0.008 4.53976,0.30992 6.98632,0.99023 7.828,2.176 13.3244,7.23488 12.27539,11.29688 -1.048,4.062 -8.24621,5.58911 -16.07421,3.41211 -7.829,-2.177 -13.32439,-7.23293 -12.27539,-11.29493 0.72118,-2.79262 4.34764,-4.38761 9.08789,-4.40429 z"
           transform="translate(-23.546654,-35.954294)" />
        <path
           style="fill:#b3b3b3;marker:none"
           d="m 268.7,173.551 c -0.297,0.998 -2.331,1.373 -4.544,0.838 -2.213,-0.534 -3.767,-1.776 -3.47,-2.774 0.296,-0.997 2.33,-1.373 4.543,-0.838 2.213,0.534 3.767,1.776 3.47,2.774 z"
           fill="#ffffff"
           overflow="visible"
           id="path21" />
      </g>
    </g>
  </g>
</svg>
